<svg height="702" width="720" xmlns="http://www.w3.org/2000/svg">
<rect height="702" fill="#555" width="720"></rect>
<text fill="#7f7" font-family="Courier New" font-size="12" xml:space="preserve">
<tspan x="10" y="26">7 megabytes installed</tspan>
<tspan x="10" y="42"></tspan>
<tspan x="10" y="58">node_modules</tspan>
<tspan x="10" y="74">└─┬ nlf@1.4.3 </tspan>
<tspan x="10" y="90">  ├── archy@1.0.0 </tspan>
<tspan x="10" y="106">  ├─┬ commander@2.9.0 </tspan>
<tspan x="10" y="122">  │ └── graceful-readlink@1.0.1 </tspan>
<tspan x="10" y="138">  ├── compare-versions@3.0.0 </tspan>
<tspan x="10" y="154">  ├─┬ glob-all@3.1.0 </tspan>
<tspan x="10" y="170">  │ ├─┬ glob@7.1.1 </tspan>
<tspan x="10" y="186">  │ │ ├── fs.realpath@1.0.0 </tspan>
<tspan x="10" y="202">  │ │ ├─┬ inflight@1.0.6 </tspan>
<tspan x="10" y="218">  │ │ │ └── wrappy@1.0.2 </tspan>
<tspan x="10" y="234">  │ │ ├── inherits@2.0.3 </tspan>
<tspan x="10" y="250">  │ │ ├─┬ minimatch@3.0.3 </tspan>
<tspan x="10" y="266">  │ │ │ └─┬ brace-expansion@1.1.7 </tspan>
<tspan x="10" y="282">  │ │ │   ├── balanced-match@0.4.2 </tspan>
<tspan x="10" y="298">  │ │ │   └── concat-map@0.0.1 </tspan>
<tspan x="10" y="314">  │ │ ├── once@1.4.0 </tspan>
<tspan x="10" y="330">  │ │ └── path-is-absolute@1.0.1 </tspan>
<tspan x="10" y="346">  │ └─┬ yargs@1.2.6 </tspan>
<tspan x="10" y="362">  │   └── minimist@0.1.0 </tspan>
<tspan x="10" y="378">  └─┬ read-installed@4.0.3 </tspan>
<tspan x="10" y="394">    ├── debuglog@1.0.1 </tspan>
<tspan x="10" y="410">    ├── graceful-fs@4.1.11 </tspan>
<tspan x="10" y="426">    ├─┬ read-package-json@2.0.5 </tspan>
<tspan x="10" y="442">    │ ├─┬ json-parse-helpfulerror@1.0.3 </tspan>
<tspan x="10" y="458">    │ │ └── jju@1.3.0 </tspan>
<tspan x="10" y="474">    │ └─┬ normalize-package-data@2.3.8 </tspan>
<tspan x="10" y="490">    │   ├── hosted-git-info@2.4.2 </tspan>
<tspan x="10" y="506">    │   ├─┬ is-builtin-module@1.0.0 </tspan>
<tspan x="10" y="522">    │   │ └── builtin-modules@1.1.1 </tspan>
<tspan x="10" y="538">    │   └─┬ validate-npm-package-license@3.0.1 </tspan>
<tspan x="10" y="554">    │     ├─┬ spdx-correct@1.0.2 </tspan>
<tspan x="10" y="570">    │     │ └── spdx-license-ids@1.2.2 </tspan>
<tspan x="10" y="586">    │     └── spdx-expression-parse@1.0.4 </tspan>
<tspan x="10" y="602">    ├─┬ readdir-scoped-modules@1.0.2 </tspan>
<tspan x="10" y="618">    │ └─┬ dezalgo@1.0.3 </tspan>
<tspan x="10" y="634">    │   └── asap@2.0.5 </tspan>
<tspan x="10" y="650">    ├── semver@5.3.0 </tspan>
<tspan x="10" y="666">    ├── slide@1.1.6 </tspan>
<tspan x="10" y="682">    └── util-extend@1.0.3</tspan>
</text>
</svg>
